<svg xmlns="http://www.w3.org/2000/svg" viewBox="0 0 1200 80" width="100%" height="80px" preserveAspectRatio="none">
  <!-- Ripped Notebook Paper Edge with drop shadow -->
  <defs>
    <filter id="paper-shadow" x="-5%" y="-20%" width="110%" height="140%">
      <feDropShadow dx="0" dy="-4" stdDeviation="4" flood-color="#000000" flood-opacity="0.06"/>
    </filter>
  </defs>
  <path d="M 0,35 
           L 15,30 L 25,38 L 35,32 L 50,36 L 62,28 L 78,38 L 90,30 L 105,35 L 115,30 L 130,38 L 142,32 L 155,36 L 170,28 L 185,38 L 200,30 
           L 215,35 L 225,30 L 235,38 L 245,32 L 260,36 L 272,28 L 288,38 L 300,30 L 315,35 L 325,30 L 340,38 L 352,32 L 365,36 L 380,28 L 395,38 L 410,30
           L 425,35 L 435,30 L 445,38 L 455,32 L 470,36 L 482,28 L 498,38 L 510,30 L 525,35 L 535,30 L 550,38 L 562,32 L 575,36 L 590,28 L 605,38 L 620,30
           L 635,35 L 645,30 L 655,38 L 665,32 L 680,36 L 692,28 L 708,38 L 720,30 L 735,35 L 745,30 L 760,38 L 772,32 L 785,36 L 800,28 L 815,38 L 830,30
           L 845,35 L 855,30 L 865,38 L 875,32 L 890,36 L 902,28 L 918,38 L 930,30 L 945,35 L 955,30 L 970,38 L 982,32 L 995,36 L 1010,28 L 1025,38 L 1040,30
           L 1055,35 L 1065,30 L 1075,38 L 1085,32 L 1100,36 L 1112,28 L 1128,38 L 1140,30 L 1155,35 L 1165,30 L 1180,38 L 1192,32 L 1200,35
           L 1200,80 L 0,80 Z" 
        fill="#fcfbf7" filter="url(#paper-shadow)" />
</svg>
